<svg width="443" height="136" viewBox="0 0 443 136" fill="none" xmlns="http://www.w3.org/2000/svg">
<path d="M93.8707 94.7295C67.9319 94.7295 46.9038 73.7015 46.9038 47.7627H93.8707V94.7295Z" fill="#3679D9"/>
<path d="M93.8707 47.762V0.79454H46.9038" fill="#3679D9"/>
<path d="M46.9552 0.719025C34.5016 0.719025 22.5588 5.66599 13.7529 14.4719C4.94695 23.2778 0 35.2206 0 47.6742C0 60.1273 4.94695 72.0707 13.7529 80.8766C22.5588 89.6825 34.5016 94.6295 46.9552 94.6295V47.6742V0.719025Z" fill="#3679D9"/>
<path d="M208.214 85.1064C206.623 86.1379 204.696 87.2768 202.434 88.5233C200.214 89.7697 197.639 90.9307 194.707 92.0052C191.817 93.0797 188.55 93.9608 184.906 94.6484C181.305 95.3791 177.304 95.7444 172.907 95.7444C165.661 95.7444 159.128 94.584 153.306 92.2631C147.484 89.9422 142.521 86.6966 138.416 82.5276C134.312 78.315 131.15 73.3072 128.93 67.505C126.71 61.7021 125.601 55.3191 125.601 48.3557C125.601 41.4354 126.689 35.0308 128.867 29.1426C131.087 23.2108 134.249 18.0956 138.354 13.7977C142.5 9.45612 147.547 6.08222 153.494 3.67475C159.441 1.22491 166.164 0 173.661 0H174.54C179.315 0.0859592 184.006 0.623204 188.613 1.61174C193.262 2.55729 198.016 3.84667 202.874 5.48051L204.633 31.6569H203.314C202.979 30.5824 202.539 29.2931 201.994 27.7888C201.45 26.2409 200.759 24.6077 199.921 22.8885C199.126 21.1693 198.141 19.4065 196.969 17.6014C195.838 15.7962 194.518 14.077 193.01 12.4438C191.545 10.767 189.869 9.24123 187.985 7.86588C186.1 6.49054 183.985 5.37307 181.639 4.51348L181.2 4.25559C179.859 3.91176 178.561 3.67475 177.304 3.54581C176.09 3.41687 174.98 3.3524 173.975 3.3524C169.326 3.3524 165.347 4.51348 162.039 6.83438C158.73 9.1123 156.007 12.2719 153.871 16.312C151.777 20.3097 150.227 25.0589 149.222 30.5609C148.259 36.02 147.777 41.9297 147.777 48.2913C147.777 55.2976 148.364 61.5302 149.536 66.9892C150.751 72.4476 152.51 77.0471 154.814 80.7863C157.117 84.5261 159.944 87.3843 163.295 89.3614C166.687 91.339 170.541 92.3276 174.855 92.3276C176.739 92.2846 178.519 92.0052 180.194 91.4895C181.912 90.9737 183.398 90.286 184.655 89.4258C185.953 88.5232 186.98 87.4917 187.734 86.3313C188.487 85.1708 188.864 83.9029 188.864 82.5276L188.927 62.9271L177.87 52.16V51.1285H208.214V85.1064Z" fill="#10244C"/>
<path d="M241.75 27.9823V39.5874C242.629 37.9112 243.843 36.3209 245.393 34.816C246.943 33.2688 248.681 31.9149 250.608 30.7544C252.534 29.594 254.545 28.6914 256.639 28.0467C258.733 27.3591 260.764 27.0146 262.732 27.0146C263.696 27.0146 264.617 27.0791 265.497 27.208C266.418 27.3376 267.34 27.5955 268.261 27.9823L264.932 48.6137H263.927C263.131 47.5392 262.272 46.4217 261.35 45.2613C260.471 44.1008 259.466 43.0479 258.335 42.1017C257.246 41.1132 256.01 40.318 254.628 39.7163C253.288 39.1146 251.781 38.8137 250.105 38.8137C248.221 38.8137 246.566 39.265 245.142 40.1676C243.718 41.0272 242.587 41.9942 241.75 43.0693V85.1065L249.728 93.2302V94.1973H214.735V93.2302L222.462 85.1709V40.1031L215.426 34.0424V33.0109L241.058 27.2725L241.75 27.9823Z" fill="#10244C"/>
<path d="M298.342 30.1096C296.498 30.1096 294.865 30.7114 293.441 31.9148C292.017 33.0752 290.823 34.7514 289.86 36.944C288.897 39.093 288.143 41.7362 287.598 44.8744C287.054 47.9689 286.74 51.4508 286.656 55.319L308.582 53.9652C308.582 49.7525 308.372 46.1423 307.954 43.1337C307.535 40.1245 306.906 37.6532 306.069 35.7191C305.231 33.7844 304.163 32.3661 302.865 31.4635C301.608 30.5609 300.101 30.1096 298.342 30.1096ZM326.109 79.8192C324.602 82.2697 322.906 84.4831 321.021 86.4602C319.178 88.3943 317.084 90.0711 314.738 91.4894C312.393 92.8648 309.796 93.9178 306.949 94.6484C304.1 95.3791 300.959 95.7444 297.524 95.7444C292.876 95.7444 288.645 94.9278 284.834 93.2946C281.065 91.6614 277.84 89.4043 275.159 86.5247C272.479 83.6021 270.405 80.1201 268.94 76.08C267.515 72.0393 266.804 67.5909 266.804 62.7336C266.804 57.4895 267.599 52.6973 269.191 48.3557C270.782 43.9718 273.002 40.2319 275.85 37.1374C278.74 33.9993 282.174 31.5709 286.154 29.8518C290.174 28.1326 294.572 27.2724 299.347 27.2724C303.828 27.2724 307.807 28.0681 311.283 29.6583C314.801 31.2056 317.775 33.3331 320.204 36.0414C322.634 38.7492 324.476 41.9296 325.732 45.5835C326.989 49.1938 327.617 53.0626 327.617 57.1886H286.593C286.552 57.4895 286.53 57.7688 286.53 58.0267C286.53 58.2846 286.53 58.5861 286.53 58.9299C286.782 67.3116 288.729 73.78 292.373 78.3365C296.017 82.8929 301.064 85.1708 307.513 85.1708C309.398 85.1708 311.199 84.9989 312.917 84.655C314.676 84.3112 316.309 83.8599 317.817 83.3012C319.325 82.6995 320.686 82.0333 321.9 81.302C323.157 80.5714 324.246 79.7978 325.167 78.9811L326.109 79.8192Z" fill="#10244C"/>
<path d="M357.572 86.3958C361.132 86.3958 364.148 85.4072 366.619 83.4302V59.7681C363.854 60.2408 361.363 60.9715 359.143 61.96C356.923 62.9056 355.038 64.0875 353.488 65.5058C351.939 66.9248 350.745 68.558 349.907 70.4061C349.07 72.2543 348.651 74.2749 348.651 76.4669C348.651 79.4325 349.342 81.8393 350.724 83.6881C352.149 85.4932 354.431 86.3958 357.572 86.3958ZM367.184 85.9445C364.587 88.8671 361.551 91.2316 358.075 93.0367C354.598 94.8419 350.892 95.7445 346.955 95.7445C344.526 95.7445 342.285 95.4221 340.233 94.7774C338.18 94.1327 336.4 93.2087 334.893 92.0052C333.427 90.7588 332.275 89.2539 331.437 87.4917C330.6 85.7296 330.181 83.7096 330.181 81.431C330.181 77.8207 331.165 74.6188 333.134 71.8245C335.144 69.0308 337.803 66.6239 341.112 64.6033C344.463 62.5832 348.337 60.9715 352.735 59.7681C357.132 58.5646 361.761 57.7474 366.619 57.3176V49.1939C366.619 47.1738 366.326 45.3257 365.739 43.6495C365.195 41.9727 364.315 40.5544 363.1 39.3939C361.886 38.1905 360.336 37.2664 358.452 36.6217C356.567 35.977 354.305 35.6547 351.667 35.6547C348.735 35.6547 345.95 36.02 343.311 36.7507C340.714 37.4813 338.034 38.6418 335.27 40.232L334.39 39.0071C337.782 35.5257 341.929 32.7314 346.829 30.6254C351.729 28.4765 357.195 27.402 363.226 27.402C367.75 27.402 371.477 27.9607 374.409 29.0782C377.341 30.1527 379.644 31.6999 381.319 33.72C383.037 35.6977 384.23 38.083 384.901 40.8767C385.571 43.628 385.906 46.6581 385.906 49.9675V82.6565L392.439 89.8133V90.5869L369.383 95.7445L367.184 85.9445Z" fill="#10244C"/>
<path d="M421.577 95.7445C418.939 95.7445 416.488 95.3577 414.227 94.584C411.965 93.8104 409.976 92.6714 408.258 91.1671C406.583 89.6193 405.264 87.7067 404.3 85.4287C403.337 83.1508 402.856 80.4855 402.856 77.4339V31.3991H394.814V30.6255L403.735 26.0475L420.949 13.153H422.08V28.9492H441.178V31.3991H422.08V77.4339C422.08 80.8723 422.812 83.4732 424.279 85.2353C425.787 86.9545 427.923 87.8141 430.687 87.8141C433.074 87.8141 435.273 87.5348 437.283 86.976C439.294 86.3743 440.99 85.5792 442.372 84.5906L443 85.5577C441.953 86.8901 440.697 88.1794 439.231 89.4258C437.807 90.6299 436.174 91.7044 434.33 92.6499C432.529 93.5955 430.561 94.3476 428.425 94.9064C426.289 95.4651 424.007 95.7445 421.577 95.7445Z" fill="#10244C"/>
<path d="M125.601 134.664H128.343V122.19H125.601V134.664Z" fill="#10244C"/>
<path d="M135.642 134.664H138.349V126.734L144.385 134.664H146.718V122.19H144.011V129.87L138.171 122.19H135.642V134.664Z" fill="#10244C"/>
<path d="M156.798 134.664H159.54V124.72H163.332V122.19H153.004V124.72H156.798V134.664Z" fill="#10244C"/>
<path d="M169.626 134.664H179.117V132.223H172.351V129.603H178.227V127.161H172.351V124.631H179.028V122.19H169.626V134.664Z" fill="#10244C"/>
<path d="M185.74 134.664H188.482V130.672H190.637L193.307 134.664H196.513L193.468 130.209C195.052 129.621 196.139 128.356 196.139 126.342V126.306C196.139 125.13 195.765 124.15 195.07 123.455C194.251 122.636 193.023 122.19 191.438 122.19H185.74V134.664ZM188.482 128.249V124.667H191.206C192.542 124.667 193.361 125.273 193.361 126.449V126.485C193.361 127.536 192.595 128.249 191.26 128.249H188.482Z" fill="#10244C"/>
<path d="M202.793 134.664H205.499V126.734L211.536 134.664H213.868V122.19H211.162V129.87L205.321 122.19H202.793V134.664Z" fill="#10244C"/>
<path d="M219.977 134.664H222.773L223.912 131.866H229.183L230.322 134.664H233.19L227.847 122.101H225.319L219.977 134.664ZM224.892 129.442L226.547 125.397L228.203 129.442H224.892Z" fill="#10244C"/>
<path d="M240.601 134.664H243.343V124.72H247.135V122.19H236.808V124.72H240.601V134.664Z" fill="#10244C"/>
<path d="M253.554 134.664H256.296V122.19H253.554V134.664Z" fill="#10244C"/>
<path d="M269.65 134.878C273.496 134.878 276.292 131.973 276.292 128.427V128.391C276.292 124.845 273.532 121.976 269.685 121.976C265.839 121.976 263.044 124.88 263.044 128.427V128.462C263.044 132.009 265.804 134.878 269.65 134.878ZM269.685 132.347C267.477 132.347 265.911 130.565 265.911 128.427V128.391C265.911 126.253 267.442 124.506 269.65 124.506C271.858 124.506 273.425 126.288 273.425 128.427V128.462C273.425 130.601 271.893 132.347 269.685 132.347Z" fill="#10244C"/>
<path d="M282.909 134.664H285.615V126.734L291.652 134.664H293.985V122.19H291.278V129.87L285.437 122.19H282.909V134.664Z" fill="#10244C"/>
<path d="M300.093 134.664H302.889L304.029 131.866H309.299L310.439 134.664H313.306L307.964 122.101H305.435L300.093 134.664ZM305.008 129.442L306.664 125.397L308.32 129.442H305.008Z" fill="#10244C"/>
<path d="M319.414 134.664H328.372V132.169H322.157V122.19H319.414V134.664Z" fill="#10244C"/>
<path d="M349.231 135.056C351.92 135.056 353.808 133.666 353.808 131.189V131.154C353.808 128.979 352.383 128.071 349.855 127.411C347.7 126.859 347.166 126.592 347.166 125.772V125.736C347.166 125.13 347.718 124.649 348.768 124.649C349.819 124.649 350.905 125.112 352.009 125.879L353.434 123.811C352.169 122.796 350.62 122.225 348.804 122.225C346.258 122.225 344.442 123.722 344.442 125.986V126.021C344.442 128.498 346.062 129.193 348.573 129.835C350.656 130.369 351.083 130.726 351.083 131.421V131.456C351.083 132.187 350.407 132.633 349.285 132.633C347.86 132.633 346.685 132.044 345.563 131.118L343.943 133.06C345.439 134.397 347.344 135.056 349.231 135.056Z" fill="#10244C"/>
<path d="M366.213 135.092C368.616 135.092 370.042 134.236 371.324 132.864L369.578 131.1C368.599 131.991 367.726 132.561 366.302 132.561C364.165 132.561 362.687 130.779 362.687 128.64V128.605C362.687 126.467 364.201 124.72 366.302 124.72C367.548 124.72 368.527 125.255 369.489 126.128L371.235 124.115C370.077 122.974 368.67 122.19 366.32 122.19C362.491 122.19 359.82 125.095 359.82 128.64V128.677C359.82 132.258 362.545 135.092 366.213 135.092Z" fill="#10244C"/>
<path d="M377.703 134.878H380.446V129.87H385.502V134.878H388.245V122.403H385.502V127.34H380.446V122.403H377.703V134.878Z" fill="#10244C"/>
<path d="M401.471 135.092C405.317 135.092 408.113 132.187 408.113 128.64V128.605C408.113 125.059 405.353 122.19 401.507 122.19C397.66 122.19 394.865 125.095 394.865 128.64V128.677C394.865 132.223 397.625 135.092 401.471 135.092ZM401.507 132.561C399.298 132.561 397.731 130.779 397.731 128.64V128.605C397.731 126.467 399.263 124.72 401.471 124.72C403.679 124.72 405.246 126.503 405.246 128.64V128.677C405.246 130.815 403.715 132.561 401.507 132.561Z" fill="#10244C"/>
<path d="M420.784 135.092C424.63 135.092 427.426 132.187 427.426 128.64V128.605C427.426 125.059 424.666 122.19 420.82 122.19C416.973 122.19 414.178 125.095 414.178 128.64V128.677C414.178 132.223 416.938 135.092 420.784 135.092ZM420.82 132.561C418.612 132.561 417.045 130.779 417.045 128.64V128.605C417.045 126.467 418.576 124.72 420.784 124.72C422.992 124.72 424.559 126.503 424.559 128.64V128.677C424.559 130.815 423.028 132.561 420.82 132.561Z" fill="#10244C"/>
<path d="M434.044 134.878H443V132.383H436.786V122.403H434.044V134.878Z" fill="#10244C"/>
</svg>
